<?xml version="1.0" encoding="UTF-8" standalone="no"?>
<!-- Created with Inkscape (http://www.inkscape.org/) -->

<svg
   version="1.1"
   id="svg176"
   width="512"
   height="512"
   viewBox="0 0 512 512"
   sodipodi:docname="icon.svg"
   inkscape:version="1.2.2 (b0a8486541, 2022-12-01)"
   inkscape:export-filename="icon.png"
   inkscape:export-xdpi="96"
   inkscape:export-ydpi="96"
   xmlns:inkscape="http://www.inkscape.org/namespaces/inkscape"
   xmlns:sodipodi="http://sodipodi.sourceforge.net/DTD/sodipodi-0.dtd"
   xmlns="http://www.w3.org/2000/svg"
   xmlns:svg="http://www.w3.org/2000/svg">
  <defs
     id="defs180" />
  <sodipodi:namedview
     id="namedview178"
     pagecolor="#ffffff"
     bordercolor="#000000"
     borderopacity="0.25"
     inkscape:showpageshadow="2"
     inkscape:pageopacity="0.0"
     inkscape:pagecheckerboard="0"
     inkscape:deskcolor="#d1d1d1"
     showgrid="false"
     inkscape:zoom="1.47"
     inkscape:cx="289"
     inkscape:cy="197"
     inkscape:window-width="3840"
     inkscape:window-height="2078"
     inkscape:window-x="0"
     inkscape:window-y="0"
     inkscape:window-maximized="1"
     inkscape:current-layer="g182" />
  <g
     inkscape:groupmode="layer"
     inkscape:label="Image"
     id="g182"
     transform="translate(-53.3,-12.6)">
    <path
       style="fill:none;stroke:#003352;stroke-width:20;stroke-linecap:round;stroke-dasharray:80, 60;stroke-dashoffset:0;stroke-opacity:1"
       d="M 441,386 C 441,386 442,433 429,452 412,477 383,495 353,505 321,516 285,519 251,514 214,509 175,498 148,477 114,447 96.4,404 84.6,364 71.2,318 70.8,270 78.3,223 84.7,183 96.8,140 122,106 139,82.5 165,63.7 192,48.8 217,35.2 245,21.8 273,21.1 302,20.3 329,32.5 354,43.7 387,66.4 410,71.3 435,120"
       id="path1320"
       sodipodi:nodetypes="cssssssssscc" />
    <path
       id="path344"
       style="fill:#a7a9ac;fill-opacity:1;stroke-width:1.61873"
       d="M 454,164 C 477,140 487,91 468,77.7 451,62.5 411,84.4 392,104 374,126 373,174 350,200 290,275 181,402 132,468 114,490 105,511 105,511 105,511 133,492 148,480 229,394 314,285 376,216 398,193 435,189 454,164 Z M 436,142 A 14.2,32.6 40.1 0 1 403,158 14.2,32.6 40.1 0 1 415,126 14.2,32.6 40.1 0 1 446,108 14.2,32.6 40.1 0 1 436,142 Z" />
    <path
       style="fill:none;stroke:#003352;stroke-width:20;stroke-linecap:round;stroke-dasharray:none;stroke-dashoffset:0;stroke-opacity:1"
       d="M 436,121 C 475,167 509,150 524,144 562,128 551,73.6 527,60.2 448,17.7 421,26 330,113 235,205 344,200 344,200"
       id="path1378"
       sodipodi:nodetypes="csssc" />
  </g>
</svg>
